<svg width="41" height="41" viewBox="0 0 41 41" fill="none" xmlns="http://www.w3.org/2000/svg">
<path d="M17.4384 18.7017C17.1276 18.9237 16.728 19.0569 16.2395 19.0569H13.4863V16.1706H16.0619C16.3283 16.1706 16.5503 16.1706 16.7724 16.215C16.9944 16.2594 17.172 16.3482 17.3496 16.437C17.5272 16.5702 17.6605 16.7034 17.7493 16.8811C17.8381 17.0587 17.8825 17.3251 17.8825 17.5915C17.8825 18.08 17.7493 18.4797 17.4384 18.7017Z" fill="#6B7280"/>
<path d="M17.1276 24.208C16.9056 24.2524 16.6391 24.2968 16.3727 24.2968H13.4863V20.8776H16.4171C16.9944 20.8776 17.4829 21.0108 17.8381 21.2772C18.1933 21.5881 18.371 22.0321 18.371 22.6538C18.371 22.9646 18.2822 23.2311 18.1933 23.4531C18.0601 23.6751 17.9269 23.8084 17.7493 23.9416C17.5717 24.0748 17.3496 24.1636 17.1276 24.208Z" fill="#6B7280"/>
<path d="M26.364 19.1013C26.9413 19.1013 27.4297 19.279 27.7406 19.5898C28.0514 19.9006 28.2734 20.3447 28.3623 21.0108H24.3657C24.3657 20.8636 24.3962 20.7165 24.4319 20.5441C24.4393 20.5084 24.4469 20.4716 24.4546 20.4335C24.499 20.2115 24.5878 19.9895 24.7654 19.8118C24.943 19.6342 25.1206 19.4566 25.3871 19.3234C25.6535 19.1902 25.9643 19.1013 26.364 19.1013Z" fill="#6B7280"/>
<path fill-rule="evenodd" clip-rule="evenodd" d="M20.7776 0.333496C9.73189 0.333496 0.777588 9.2878 0.777588 20.3335C0.777588 31.3792 9.73189 40.3335 20.7776 40.3335C31.8233 40.3335 40.7776 31.3792 40.7776 20.3335C40.7776 9.2878 31.8233 0.333496 20.7776 0.333496ZM18.1933 14.2611C17.7049 14.1279 17.172 14.0835 16.5947 14.0835H10.7776V26.3395H16.728C17.2608 26.3395 17.7937 26.2507 18.3266 26.1175C18.8594 25.9842 19.3479 25.7622 19.7475 25.4958C20.1472 25.2293 20.5024 24.8297 20.7245 24.3856C20.9465 23.9416 21.0797 23.4087 21.0797 22.787C21.0797 22.0321 20.8577 21.366 20.5024 20.8332C20.1472 20.3003 19.5699 19.9006 18.815 19.6786C19.3479 19.4122 19.792 19.0569 20.0584 18.6573C20.3692 18.2576 20.5024 17.7248 20.5024 17.1031C20.5024 16.5702 20.4136 16.0818 20.236 15.6821C20.0584 15.2825 19.792 14.9716 19.4367 14.7496C19.0815 14.5276 18.6818 14.3499 18.1933 14.2611ZM26.5416 24.7853C25.8311 24.7853 25.2983 24.6077 24.943 24.2524C24.5878 23.8972 24.3213 23.2311 24.3213 22.5206H30.7602C30.8046 21.8101 30.7602 21.1884 30.6714 20.5667C30.4937 19.9451 30.2273 19.3678 29.8721 18.8793C29.5168 18.3464 29.0728 17.9912 28.4955 17.6804C27.9182 17.3695 27.2521 17.2363 26.4972 17.2363C25.7867 17.2363 25.2094 17.3695 24.6322 17.5915C24.0993 17.8136 23.6108 18.1688 23.2112 18.5685C22.8115 19.0125 22.5007 19.501 22.2787 20.0783C22.0566 20.6555 21.9678 21.2772 21.9678 21.9433C21.9678 22.6538 22.0566 23.2755 22.2787 23.8528C22.4563 24.43 22.7671 24.9185 23.1668 25.3181C23.5664 25.7622 24.0105 26.073 24.5878 26.2951C25.165 26.5171 25.7867 26.6503 26.4972 26.6503C27.5185 26.6503 28.3623 26.3839 29.0728 25.9398C29.7832 25.4514 30.3161 24.6965 30.6714 23.6307H28.4955C28.4067 23.8972 28.1846 24.1636 27.8294 24.43C27.4741 24.6521 27.0301 24.7853 26.5416 24.7853ZM28.8063 14.9272H23.8329V16.1262H28.8063V14.9272Z" fill="#6B7280"/>
</svg>
