<svg width="41" height="41" viewBox="0 0 41 41" fill="none" xmlns="http://www.w3.org/2000/svg">
<path d="M15.0012 28.1851C15.0012 28.0679 14.884 27.9507 14.7083 27.9507C14.5325 27.9507 14.4153 28.0679 14.4153 28.1851C14.4153 28.3022 14.5325 28.4194 14.7083 28.3608C14.884 28.3608 15.0012 28.3022 15.0012 28.1851ZM13.1848 27.8921C13.1848 28.0093 13.302 28.1851 13.4778 28.1851C13.595 28.2437 13.7708 28.1851 13.8293 28.0679C13.8293 27.9507 13.7708 27.8335 13.595 27.7749C13.4192 27.7163 13.2434 27.7749 13.1848 27.8921ZM15.8215 27.8335C15.6458 27.8335 15.5286 27.9507 15.5286 28.1265C15.5286 28.2437 15.7043 28.3022 15.8801 28.2437C16.0559 28.1851 16.1731 28.1265 16.1145 28.0093C16.1145 27.8921 15.9387 27.7749 15.8215 27.8335ZM19.6301 5.3335C11.5442 5.3335 5.33325 11.5444 5.33325 19.6304C5.33325 26.1343 9.37622 31.7007 15.2356 33.6929C15.9973 33.8101 16.2317 33.3413 16.2317 32.9897C16.2317 32.5796 16.2317 30.5874 16.2317 29.3569C16.2317 29.3569 12.1301 30.2358 11.2512 27.5991C11.2512 27.5991 10.6067 25.8999 9.66919 25.4897C9.66919 25.4897 8.32153 24.5522 9.72778 24.5522C9.72778 24.5522 11.1926 24.6694 12.0129 26.0757C13.302 28.3608 15.4114 27.7163 16.2903 27.3062C16.4075 26.3687 16.759 25.7241 17.2278 25.314C13.9465 24.9624 10.6067 24.4937 10.6067 18.8687C10.6067 17.228 11.0754 16.4663 12.0129 15.4116C11.8372 15.0015 11.3684 13.478 12.1887 11.4272C13.3606 11.0757 16.2317 13.0093 16.2317 13.0093C17.4036 12.6577 18.634 12.5405 19.8645 12.5405C21.1536 12.5405 22.384 12.6577 23.5559 13.0093C23.5559 13.0093 26.3684 11.0171 27.5989 11.4272C28.4192 13.478 27.8918 15.0015 27.7747 15.4116C28.7122 16.4663 29.2981 17.228 29.2981 18.8687C29.2981 24.4937 25.8411 24.9624 22.5598 25.314C23.0872 25.7827 23.5559 26.6616 23.5559 28.0679C23.5559 30.0015 23.4973 32.4624 23.4973 32.9312C23.4973 33.3413 23.7903 33.8101 24.552 33.6343C30.4114 31.7007 34.3958 26.1343 34.3958 19.6304C34.3958 11.5444 27.7747 5.3335 19.6301 5.3335ZM11.0168 25.5483C10.8997 25.6069 10.9583 25.7827 11.0168 25.8999C11.134 25.9585 11.2512 26.0171 11.3684 25.9585C11.427 25.8999 11.427 25.7241 11.3098 25.6069C11.1926 25.5483 11.0754 25.4897 11.0168 25.5483ZM10.3723 25.0796C10.3137 25.1968 10.3723 25.2554 10.4895 25.314C10.6067 25.3726 10.7239 25.3726 10.7825 25.2554C10.7825 25.1968 10.7239 25.1382 10.6067 25.0796C10.4895 25.021 10.4309 25.021 10.3723 25.0796ZM12.2473 27.189C12.1887 27.2476 12.1887 27.4233 12.3645 27.5405C12.4817 27.6577 12.6575 27.7163 12.7161 27.5991C12.7747 27.5405 12.7747 27.3647 12.6575 27.2476C12.5403 27.1304 12.3645 27.0718 12.2473 27.189ZM11.6028 26.3101C11.4856 26.3687 11.4856 26.5444 11.6028 26.6616C11.72 26.7788 11.8372 26.8374 11.9543 26.7788C12.0129 26.7202 12.0129 26.5444 11.9543 26.4272C11.8372 26.3101 11.72 26.2515 11.6028 26.3101Z" fill="#6B7280"/>
</svg>
