<svg width="50" height="76" viewBox="0 0 50 76" fill="none" xmlns="http://www.w3.org/2000/svg">
<path d="M25.5625 62C22.8125 59.4375 19.9062 57.5833 16.8438 56.4375C13.7812 55.2708 10.8333 54.7812 8 54.9688C5.0625 55.1771 3.39583 56.8229 3 59.9062C2.60417 62.9896 3.21875 65.25 4.84375 66.6875C6.09375 67.7708 8.11458 68.5938 10.9062 69.1562C13.6979 69.7396 16.6667 70.0625 19.8125 70.125C22.125 70.1667 24.3646 70.0521 26.5312 69.7812C28.7188 69.5312 30.6562 68.9792 32.3438 68.125C33.8021 67.3542 35.0417 66.1458 36.0625 64.5C37.0833 62.875 37.6458 61 37.75 58.875L38.4688 59.1875C39.1146 63.0833 37.8021 66.8333 34.5312 70.4375C31.2812 74.0417 26.4479 75.875 20.0312 75.9375C16.1979 75.9583 12.9688 75.2604 10.3438 73.8438C7.73958 72.4271 5.69792 70.4896 4.21875 68.0312C2.57292 65.2188 1.80208 62.125 1.90625 58.75C2.01042 55.375 2.98958 52.2083 4.84375 49.25C6.48958 46.625 8.6875 44.5 11.4375 42.875V32.5938L5.40625 32.3438C4.05208 32.3021 3.09375 32.9167 2.53125 34.1875C1.96875 35.4375 1.59375 37.0104 1.40625 38.9062L0.84375 38.875V31C0.84375 29.9375 1.23958 28.375 2.03125 26.3125C2.82292 24.25 4.91667 23.2188 8.3125 23.2188H11.4375V13.7812C9.60417 13.9479 7.34375 14.0625 4.65625 14.125C4.03125 14.1458 3.72917 13.9896 3.75 13.6562C3.77083 13.3021 4 13.0938 4.4375 13.0312C9.8125 12.5938 15.6562 12.0312 21.9688 11.3438C28.3021 10.6562 34.3229 7.13542 40.0312 0.78125C40.0521 0.760417 40.3854 0.8125 41.0312 0.9375C43.0729 2.125 44.7604 3.8125 46.0938 6C47.4479 8.1875 48.3125 10.5312 48.6875 13.0312C49 15.2396 48.8958 17.4271 48.375 19.5938C47.875 21.7396 46.8646 23.5312 45.3438 24.9688C44.2188 26.0312 42.4375 26.8438 40 27.4062C37.5833 27.9688 35.4375 28.3438 33.5625 28.5312C33.4375 28.5521 33.4167 28.6562 33.5 28.8438C33.6042 29.0104 33.7083 29.0938 33.8125 29.0938C34.8542 29.1771 36.3229 29.1875 38.2188 29.125C40.1146 29.0625 41.8542 29.2708 43.4375 29.75C46.4167 30.7083 47.875 32.7396 47.8125 35.8438L47.4375 54.4688C45.5625 54.3021 43.6667 54.25 41.75 54.3125C39.8333 54.375 37.8646 54.7812 35.8438 55.5312C34.2604 56.1146 32.6354 56.9583 30.9688 58.0625C29.3021 59.1667 27.5 60.4792 25.5625 62ZM9.625 45.2812C10.2917 44.9896 10.9375 44.7396 11.5625 44.5312C14.1667 43.7188 16.9167 43.5104 19.8125 43.9062C22.7292 44.3021 25.4062 45.2188 27.8438 46.6562V29.2188L23.7188 29.3438V40.875C21.4271 40.7917 19.3646 41.0625 17.5312 41.6875C15.7188 42.3125 14.125 42.875 12.75 43.375C11.6667 43.7708 10.625 44.4062 9.625 45.2812ZM23.7188 28.2812C25.2396 28.2188 26.6146 28.125 27.8438 28V11.1562L27.9688 11.0625C26.3438 11.4792 24.9271 11.8125 23.7188 12.0625V28.2812ZM29.4688 10.6562V27.875C29.4896 27.8542 29.5208 27.8438 29.5625 27.8438C33.1458 27.4896 35.5208 26.3021 36.6875 24.2812C37.875 22.2396 38.3646 20.2083 38.1562 18.1875C37.9479 16.1667 37.1146 14.2083 35.6562 12.3125C34.2188 10.4167 32.3958 9.79167 30.1875 10.4375C30.0625 10.4792 29.9375 10.5208 29.8125 10.5625C29.7083 10.6042 29.5938 10.6354 29.4688 10.6562ZM29.4688 29.3125V47.75C31.6354 49.375 33.2708 51.3229 34.375 53.5938L34.625 53.3125C34.6458 50.3958 34.6667 47.4062 34.6875 44.3438C34.7083 41.2812 34.7396 38.3125 34.7812 35.4375C34.7812 34.5625 34.4583 33.3958 33.8125 31.9375C33.1667 30.4792 31.7188 29.6042 29.4688 29.3125Z" fill="white"/>
</svg>
