<svg width="144" height="20" viewBox="0 0 144 20" fill="none" xmlns="http://www.w3.org/2000/svg">
<path d="M11.22 1.06C12.64 1.82 13.52 3.12 13.84 5H11.92C11.68 3.96 11.2 3.18 10.46 2.7C9.72 2.22 8.8 2 7.68 2C6.34 2 5.24 2.5 4.32 3.48C3.42 4.48 2.96 5.96 2.96 7.94C2.96 9.64 3.34 11.04 4.08 12.1C4.84 13.18 6.06 13.72 7.74 13.72C9.04 13.72 10.12 13.34 10.96 12.58C11.82 11.82 12.24 10.62 12.26 8.94H7.78V7.32H14.08V15H12.82L12.36 13.16C11.7 13.88 11.12 14.38 10.6 14.66C9.76 15.14 8.68 15.38 7.36 15.38C5.66 15.38 4.18 14.84 2.96 13.74C1.64 12.36 0.96 10.46 0.96 8.04C0.96 5.64 1.62 3.74 2.92 2.32C4.16 0.96 5.76 0.279999 7.72 0.279999C9.08 0.279999 10.24 0.539999 11.22 1.06ZM18.5664 6.34C18.7064 6 19.0464 5.56 19.5864 5.06C20.1264 4.56 20.7264 4.3 21.4264 4.3C21.4464 4.3 21.5064 4.3 21.5864 4.32L21.9864 4.36V6.22C21.8864 6.2 21.8064 6.18 21.7064 6.18C21.6264 6.16 21.5264 6.16 21.4064 6.16C20.5264 6.16 19.8464 6.44 19.3664 7.02C18.9064 7.58 18.6664 8.24 18.6664 8.98V15H16.9064V4.54H18.5664V6.34ZM29.1266 8.66C29.5266 8.62 29.7866 8.44 29.9266 8.16C30.0066 8 30.0466 7.78 30.0466 7.48C30.0466 6.88 29.8266 6.44 29.4066 6.18C28.9866 5.9 28.3666 5.78 27.5866 5.78C26.6666 5.78 26.0066 6.02 25.6266 6.52C25.4066 6.78 25.2666 7.2 25.2066 7.74H23.5666C23.5866 6.44 24.0066 5.54 24.8266 5.04C25.6266 4.54 26.5466 4.28 27.6266 4.28C28.8466 4.28 29.8466 4.52 30.6066 5C31.3866 5.46 31.7666 6.2 31.7666 7.18V13.2C31.7666 13.38 31.8066 13.54 31.8666 13.64C31.9466 13.76 32.1066 13.8 32.3466 13.8C32.4266 13.8 32.5066 13.8 32.6066 13.78C32.7066 13.78 32.8066 13.76 32.9266 13.76V15.04C32.6466 15.12 32.4466 15.18 32.2866 15.2C32.1466 15.22 31.9466 15.22 31.7066 15.22C31.1066 15.22 30.6666 15 30.3866 14.58C30.2466 14.36 30.1466 14.04 30.0866 13.62C29.7266 14.08 29.2266 14.5 28.5466 14.84C27.8666 15.18 27.1466 15.36 26.3266 15.36C25.3666 15.36 24.5666 15.06 23.9466 14.46C23.3466 13.88 23.0266 13.14 23.0266 12.26C23.0266 11.28 23.3266 10.54 23.9266 10C24.5466 9.46 25.3266 9.14 26.3266 9.02L29.1266 8.66ZM25.4266 13.42C25.7866 13.72 26.2266 13.86 26.7466 13.86C27.3466 13.86 27.9666 13.72 28.5266 13.42C29.5066 12.94 30.0066 12.18 30.0066 11.1V9.68C29.7866 9.82 29.5066 9.94 29.1666 10.02C28.8266 10.1 28.4866 10.18 28.1666 10.22L27.1066 10.36C26.4666 10.44 25.9866 10.56 25.6666 10.76C25.1466 11.06 24.8666 11.54 24.8666 12.22C24.8666 12.72 25.0466 13.12 25.4266 13.42ZM36.2998 6.02C36.7998 5.42 37.3198 4.98 37.8798 4.7C38.4198 4.44 39.0398 4.3 39.7198 4.3C41.1998 4.3 42.1998 4.82 42.7198 5.86C42.9998 6.42 43.1598 7.24 43.1598 8.3V15H41.3598V8.4C41.3598 7.78 41.2598 7.26 41.0798 6.86C40.7798 6.22 40.1998 5.88 39.3798 5.88C38.9598 5.88 38.6198 5.92 38.3598 6.02C37.8798 6.16 37.4598 6.44 37.0798 6.88C36.7998 7.22 36.6198 7.58 36.5198 7.94C36.4398 8.32 36.3798 8.84 36.3798 9.52V15H34.6198V4.54H36.2998V6.02ZM47.8731 4.54H49.5331V5.98H47.8731V12.8C47.8731 13.16 47.9931 13.4 48.2331 13.54C48.3731 13.6 48.6131 13.64 48.9331 13.64H49.1931C49.2931 13.64 49.4131 13.62 49.5331 13.62V15C49.3331 15.06 49.1331 15.1 48.9131 15.12C48.6931 15.16 48.4531 15.16 48.1931 15.16C47.3731 15.16 46.8331 14.96 46.5331 14.54C46.2331 14.12 46.0931 13.58 46.0931 12.9V5.98H44.6731V4.54H46.0931V1.62H47.8731V4.54ZM57.6859 1.34C58.1059 0.76 58.9059 0.439999 60.0659 0.439999C60.1659 0.439999 60.2859 0.439999 60.4059 0.459999L60.8059 0.48V2.08C60.6259 2.08 60.5059 2.08 60.4259 2.06H60.1859C59.6459 2.06 59.3259 2.2 59.2259 2.48C59.1259 2.76 59.0659 3.46 59.0659 4.58H60.8059V5.98H59.0459V15H57.3059V5.98H55.8659V4.58H57.3059V2.94C57.3459 2.22 57.4659 1.68 57.6859 1.34ZM64.1923 11.48C64.1923 12.02 64.2923 12.46 64.4523 12.8C64.7723 13.42 65.3523 13.74 66.1923 13.74C67.4123 13.74 68.2523 13.18 68.6923 12.08C68.9523 11.5 69.0723 10.7 69.0723 9.68V4.54H70.8123V15H69.1523L69.1723 13.46C68.9523 13.86 68.6723 14.18 68.3323 14.46C67.6523 15 66.8523 15.28 65.8923 15.28C64.3923 15.28 63.3723 14.78 62.8323 13.78C62.5523 13.26 62.3923 12.54 62.3923 11.66V4.54H64.1923V11.48ZM75.2256 6.02C75.7256 5.42 76.2456 4.98 76.8056 4.7C77.3456 4.44 77.9656 4.3 78.6456 4.3C80.1256 4.3 81.1256 4.82 81.6456 5.86C81.9256 6.42 82.0856 7.24 82.0856 8.3V15H80.2856V8.4C80.2856 7.78 80.1856 7.26 80.0056 6.86C79.7056 6.22 79.1256 5.88 78.3056 5.88C77.8856 5.88 77.5456 5.92 77.2856 6.02C76.8056 6.16 76.3856 6.44 76.0056 6.88C75.7256 7.22 75.5456 7.58 75.4456 7.94C75.3656 8.32 75.3056 8.84 75.3056 9.52V15H73.5456V4.54H75.2256V6.02ZM90.4389 4.86C90.7589 5.06 91.0989 5.4 91.4989 5.88V0.599999H93.1989V15H91.6189V13.54C91.1989 14.18 90.7189 14.66 90.1589 14.94C89.5989 15.22 88.9589 15.38 88.2389 15.38C87.0789 15.38 86.0589 14.88 85.1989 13.9C84.3589 12.92 83.9189 11.62 83.9189 10C83.9189 8.46 84.3189 7.14 85.0989 6.02C85.8789 4.92 86.9789 4.36 88.4189 4.36C89.2189 4.36 89.8989 4.52 90.4389 4.86ZM86.4989 12.7C86.9789 13.46 87.7389 13.84 88.7789 13.84C89.5989 13.84 90.2589 13.48 90.7989 12.78C91.2989 12.08 91.5789 11.08 91.5789 9.78C91.5789 8.46 91.2989 7.48 90.7589 6.84C90.2189 6.2 89.5589 5.88 88.7589 5.88C87.8789 5.88 87.1589 6.24 86.6189 6.9C86.0589 7.58 85.7789 8.58 85.7789 9.9C85.7789 11.02 86.0189 11.96 86.4989 12.7ZM102.292 4.82C102.992 5.18 103.532 5.62 103.892 6.18C104.232 6.7 104.472 7.32 104.592 8.02C104.692 8.5 104.752 9.28 104.752 10.34H97.0722C97.1122 11.4 97.3722 12.24 97.8322 12.88C98.2922 13.52 99.0322 13.84 100.012 13.84C100.932 13.84 101.652 13.54 102.212 12.94C102.512 12.58 102.752 12.18 102.872 11.72H104.592C104.552 12.1 104.412 12.52 104.152 13C103.892 13.48 103.612 13.86 103.272 14.16C102.752 14.68 102.092 15.02 101.292 15.22C100.872 15.32 100.392 15.38 99.8722 15.38C98.5722 15.38 97.4522 14.9 96.5522 13.94C95.6522 13 95.1922 11.68 95.1922 9.98C95.1922 8.3 95.6522 6.92 96.5722 5.88C97.4722 4.84 98.6522 4.3 100.132 4.3C100.872 4.3 101.592 4.48 102.292 4.82ZM102.932 8.94C102.872 8.18 102.712 7.56 102.432 7.1C101.972 6.26 101.152 5.84 100.032 5.84C99.2122 5.84 98.5522 6.14 97.9922 6.7C97.4522 7.3 97.1522 8.04 97.1322 8.94H102.932ZM112.665 4.86C112.985 5.06 113.325 5.4 113.725 5.88V0.599999H115.425V15H113.845V13.54C113.425 14.18 112.945 14.66 112.385 14.94C111.825 15.22 111.185 15.38 110.465 15.38C109.305 15.38 108.285 14.88 107.425 13.9C106.585 12.92 106.145 11.62 106.145 10C106.145 8.46 106.545 7.14 107.325 6.02C108.105 4.92 109.205 4.36 110.645 4.36C111.445 4.36 112.125 4.52 112.665 4.86ZM108.725 12.7C109.205 13.46 109.965 13.84 111.005 13.84C111.825 13.84 112.485 13.48 113.025 12.78C113.525 12.08 113.805 11.08 113.805 9.78C113.805 8.46 113.525 7.48 112.985 6.84C112.445 6.2 111.785 5.88 110.985 5.88C110.105 5.88 109.385 6.24 108.845 6.9C108.285 7.58 108.005 8.58 108.005 9.9C108.005 11.02 108.245 11.96 108.725 12.7ZM125.145 5.82C125.525 5.32 125.985 4.92 126.525 4.66C127.065 4.4 127.645 4.26 128.265 4.26C129.565 4.26 130.625 4.72 131.445 5.6C132.245 6.5 132.645 7.82 132.645 9.58C132.645 11.22 132.245 12.6 131.445 13.7C130.645 14.78 129.525 15.34 128.125 15.34C127.325 15.34 126.645 15.14 126.105 14.76C125.785 14.54 125.425 14.16 125.065 13.66V15H123.445V0.599999H125.145V5.82ZM130.145 12.64C130.625 11.9 130.845 10.9 130.845 9.66C130.845 8.56 130.625 7.64 130.145 6.92C129.665 6.2 128.965 5.84 128.065 5.84C127.265 5.84 126.545 6.14 125.965 6.72C125.345 7.32 125.045 8.3 125.045 9.66C125.045 10.64 125.185 11.44 125.425 12.06C125.885 13.2 126.745 13.78 128.005 13.78C128.945 13.78 129.665 13.4 130.145 12.64ZM143.158 4.54C142.918 5.22 142.358 6.74 141.518 9.14C140.878 10.92 140.338 12.4 139.918 13.52C138.898 16.2 138.178 17.82 137.758 18.4C137.338 19 136.638 19.28 135.618 19.28C135.378 19.28 135.178 19.28 135.058 19.26C134.918 19.24 134.738 19.2 134.558 19.16V17.54C134.858 17.64 135.078 17.68 135.218 17.7C135.358 17.72 135.478 17.74 135.578 17.74C135.898 17.74 136.138 17.68 136.298 17.58C136.438 17.48 136.578 17.34 136.678 17.18C136.718 17.12 136.818 16.86 137.038 16.38L137.478 15.3L133.598 4.54H135.598L138.398 13.06L141.218 4.54H143.158Z" fill="white"/>
</svg>
