<svg width="132" height="20" viewBox="0 0 132 20" fill="none" xmlns="http://www.w3.org/2000/svg">
<path d="M13.1 15H10.96L9.52 10.7H3.84L2.28 15H0.3L5.7 0.66H7.9L13.1 15ZM4.4 9.12H8.88L6.7 2.78L4.4 9.12ZM21.5398 5.1C22.2798 5.68 22.7198 6.66 22.8798 8.06H21.1598C21.0598 7.42 20.8198 6.88 20.4398 6.44C20.0798 6.02 19.4798 5.82 18.6598 5.82C17.5398 5.82 16.7398 6.36 16.2598 7.46C15.9398 8.16 15.7998 9.04 15.7998 10.08C15.7998 11.12 16.0198 12.02 16.4598 12.72C16.8998 13.44 17.5998 13.8 18.5398 13.8C19.2798 13.8 19.8598 13.58 20.2798 13.12C20.6998 12.68 20.9998 12.08 21.1598 11.3H22.8798C22.6798 12.68 22.1798 13.7 21.3998 14.34C20.6198 14.98 19.6198 15.3 18.3998 15.3C17.0398 15.3 15.9398 14.8 15.1398 13.8C14.3198 12.8 13.9198 11.56 13.9198 10.06C13.9198 8.22 14.3598 6.8 15.2598 5.78C16.1398 4.74 17.2798 4.24 18.6598 4.24C19.8398 4.24 20.7998 4.52 21.5398 5.1ZM31.5398 5.1C32.2798 5.68 32.7198 6.66 32.8798 8.06H31.1598C31.0598 7.42 30.8198 6.88 30.4398 6.44C30.0798 6.02 29.4798 5.82 28.6598 5.82C27.5398 5.82 26.7398 6.36 26.2598 7.46C25.9398 8.16 25.7998 9.04 25.7998 10.08C25.7998 11.12 26.0198 12.02 26.4598 12.72C26.8998 13.44 27.5998 13.8 28.5398 13.8C29.2798 13.8 29.8598 13.58 30.2798 13.12C30.6998 12.68 30.9998 12.08 31.1598 11.3H32.8798C32.6798 12.68 32.1798 13.7 31.3998 14.34C30.6198 14.98 29.6198 15.3 28.3998 15.3C27.0398 15.3 25.9398 14.8 25.1398 13.8C24.3198 12.8 23.9198 11.56 23.9198 10.06C23.9198 8.22 24.3598 6.8 25.2598 5.78C26.1398 4.74 27.2798 4.24 28.6598 4.24C29.8398 4.24 30.7998 4.52 31.5398 5.1ZM41.1398 4.82C41.8398 5.18 42.3798 5.62 42.7398 6.18C43.0798 6.7 43.3198 7.32 43.4398 8.02C43.5398 8.5 43.5998 9.28 43.5998 10.34H35.9198C35.9598 11.4 36.2198 12.24 36.6798 12.88C37.1398 13.52 37.8798 13.84 38.8598 13.84C39.7798 13.84 40.4998 13.54 41.0598 12.94C41.3598 12.58 41.5998 12.18 41.7198 11.72H43.4398C43.3998 12.1 43.2598 12.52 42.9998 13C42.7398 13.48 42.4598 13.86 42.1198 14.16C41.5998 14.68 40.9398 15.02 40.1398 15.22C39.7198 15.32 39.2398 15.38 38.7198 15.38C37.4198 15.38 36.2998 14.9 35.3998 13.94C34.4998 13 34.0398 11.68 34.0398 9.98C34.0398 8.3 34.4998 6.92 35.4198 5.88C36.3198 4.84 37.4998 4.3 38.9798 4.3C39.7198 4.3 40.4398 4.48 41.1398 4.82ZM41.7798 8.94C41.7198 8.18 41.5598 7.56 41.2798 7.1C40.8198 6.26 39.9998 5.84 38.8798 5.84C38.0598 5.84 37.3998 6.14 36.8398 6.7C36.2998 7.3 35.9998 8.04 35.9798 8.94H41.7798ZM47.5531 15H45.7931V0.66H47.5531V15ZM56.6867 4.82C57.3867 5.18 57.9267 5.62 58.2867 6.18C58.6267 6.7 58.8667 7.32 58.9867 8.02C59.0867 8.5 59.1467 9.28 59.1467 10.34H51.4667C51.5067 11.4 51.7667 12.24 52.2267 12.88C52.6867 13.52 53.4267 13.84 54.4067 13.84C55.3267 13.84 56.0467 13.54 56.6067 12.94C56.9067 12.58 57.1467 12.18 57.2667 11.72H58.9867C58.9467 12.1 58.8067 12.52 58.5467 13C58.2867 13.48 58.0067 13.86 57.6667 14.16C57.1467 14.68 56.4867 15.02 55.6867 15.22C55.2667 15.32 54.7867 15.38 54.2667 15.38C52.9667 15.38 51.8467 14.9 50.9467 13.94C50.0467 13 49.5867 11.68 49.5867 9.98C49.5867 8.3 50.0467 6.92 50.9667 5.88C51.8667 4.84 53.0467 4.3 54.5267 4.3C55.2667 4.3 55.9867 4.48 56.6867 4.82ZM57.3267 8.94C57.2667 8.18 57.1067 7.56 56.8267 7.1C56.3667 6.26 55.5467 5.84 54.4267 5.84C53.6067 5.84 52.9467 6.14 52.3867 6.7C51.8467 7.3 51.5467 8.04 51.5267 8.94H57.3267ZM63 6.34C63.14 6 63.48 5.56 64.02 5.06C64.56 4.56 65.16 4.3 65.86 4.3C65.88 4.3 65.94 4.3 66.02 4.32L66.42 4.36V6.22C66.32 6.2 66.24 6.18 66.14 6.18C66.06 6.16 65.96 6.16 65.84 6.16C64.96 6.16 64.28 6.44 63.8 7.02C63.34 7.58 63.1 8.24 63.1 8.98V15H61.34V4.54H63V6.34ZM73.5602 8.66C73.9602 8.62 74.2202 8.44 74.3602 8.16C74.4402 8 74.4802 7.78 74.4802 7.48C74.4802 6.88 74.2602 6.44 73.8402 6.18C73.4202 5.9 72.8002 5.78 72.0202 5.78C71.1002 5.78 70.4402 6.02 70.0602 6.52C69.8402 6.78 69.7002 7.2 69.6402 7.74H68.0002C68.0202 6.44 68.4402 5.54 69.2602 5.04C70.0602 4.54 70.9802 4.28 72.0602 4.28C73.2802 4.28 74.2802 4.52 75.0402 5C75.8202 5.46 76.2002 6.2 76.2002 7.18V13.2C76.2002 13.38 76.2402 13.54 76.3002 13.64C76.3802 13.76 76.5402 13.8 76.7802 13.8C76.8602 13.8 76.9402 13.8 77.0402 13.78C77.1402 13.78 77.2402 13.76 77.3602 13.76V15.04C77.0802 15.12 76.8802 15.18 76.7202 15.2C76.5802 15.22 76.3802 15.22 76.1402 15.22C75.5402 15.22 75.1002 15 74.8202 14.58C74.6802 14.36 74.5802 14.04 74.5202 13.62C74.1602 14.08 73.6602 14.5 72.9802 14.84C72.3002 15.18 71.5802 15.36 70.7602 15.36C69.8002 15.36 69.0002 15.06 68.3802 14.46C67.7802 13.88 67.4602 13.14 67.4602 12.26C67.4602 11.28 67.7602 10.54 68.3602 10C68.9802 9.46 69.7602 9.14 70.7602 9.02L73.5602 8.66ZM69.8602 13.42C70.2202 13.72 70.6602 13.86 71.1802 13.86C71.7802 13.86 72.4002 13.72 72.9602 13.42C73.9402 12.94 74.4402 12.18 74.4402 11.1V9.68C74.2202 9.82 73.9402 9.94 73.6002 10.02C73.2602 10.1 72.9202 10.18 72.6002 10.22L71.5402 10.36C70.9002 10.44 70.4202 10.56 70.1002 10.76C69.5802 11.06 69.3002 11.54 69.3002 12.22C69.3002 12.72 69.4802 13.12 69.8602 13.42ZM81.1934 4.54H82.8534V5.98H81.1934V12.8C81.1934 13.16 81.3134 13.4 81.5534 13.54C81.6934 13.6 81.9334 13.64 82.2534 13.64H82.5134C82.6134 13.64 82.7334 13.62 82.8534 13.62V15C82.6534 15.06 82.4534 15.1 82.2334 15.12C82.0134 15.16 81.7734 15.16 81.5134 15.16C80.6934 15.16 80.1534 14.96 79.8534 14.54C79.5534 14.12 79.4134 13.58 79.4134 12.9V5.98H77.9934V4.54H79.4134V1.62H81.1934V4.54ZM91.1398 4.82C91.8398 5.18 92.3798 5.62 92.7398 6.18C93.0798 6.7 93.3198 7.32 93.4398 8.02C93.5398 8.5 93.5998 9.28 93.5998 10.34H85.9198C85.9598 11.4 86.2198 12.24 86.6798 12.88C87.1398 13.52 87.8798 13.84 88.8598 13.84C89.7798 13.84 90.4998 13.54 91.0598 12.94C91.3598 12.58 91.5998 12.18 91.7198 11.72H93.4398C93.3998 12.1 93.2598 12.52 92.9998 13C92.7398 13.48 92.4598 13.86 92.1198 14.16C91.5998 14.68 90.9398 15.02 90.1398 15.22C89.7198 15.32 89.2398 15.38 88.7198 15.38C87.4198 15.38 86.2998 14.9 85.3998 13.94C84.4998 13 84.0398 11.68 84.0398 9.98C84.0398 8.3 84.4998 6.92 85.4198 5.88C86.3198 4.84 87.4998 4.3 88.9798 4.3C89.7198 4.3 90.4398 4.48 91.1398 4.82ZM91.7798 8.94C91.7198 8.18 91.5598 7.56 91.2798 7.1C90.8198 6.26 89.9998 5.84 88.8798 5.84C88.0598 5.84 87.3998 6.14 86.8398 6.7C86.2998 7.3 85.9998 8.04 85.9798 8.94H91.7798ZM101.513 4.86C101.833 5.06 102.173 5.4 102.573 5.88V0.599999H104.273V15H102.693V13.54C102.273 14.18 101.793 14.66 101.233 14.94C100.673 15.22 100.033 15.38 99.3131 15.38C98.1531 15.38 97.1331 14.88 96.2731 13.9C95.4331 12.92 94.9931 11.62 94.9931 10C94.9931 8.46 95.3931 7.14 96.1731 6.02C96.9531 4.92 98.0531 4.36 99.4931 4.36C100.293 4.36 100.973 4.52 101.513 4.86ZM97.5731 12.7C98.0531 13.46 98.8131 13.84 99.8531 13.84C100.673 13.84 101.333 13.48 101.873 12.78C102.373 12.08 102.653 11.08 102.653 9.78C102.653 8.46 102.373 7.48 101.833 6.84C101.293 6.2 100.633 5.88 99.8331 5.88C98.9531 5.88 98.2331 6.24 97.6931 6.9C97.1331 7.58 96.8531 8.58 96.8531 9.9C96.8531 11.02 97.0931 11.96 97.5731 12.7ZM113.993 5.82C114.373 5.32 114.833 4.92 115.373 4.66C115.913 4.4 116.493 4.26 117.113 4.26C118.413 4.26 119.473 4.72 120.293 5.6C121.093 6.5 121.493 7.82 121.493 9.58C121.493 11.22 121.093 12.6 120.293 13.7C119.493 14.78 118.373 15.34 116.973 15.34C116.173 15.34 115.493 15.14 114.953 14.76C114.633 14.54 114.273 14.16 113.913 13.66V15H112.293V0.599999H113.993V5.82ZM118.993 12.64C119.473 11.9 119.693 10.9 119.693 9.66C119.693 8.56 119.473 7.64 118.993 6.92C118.513 6.2 117.813 5.84 116.913 5.84C116.113 5.84 115.393 6.14 114.813 6.72C114.193 7.32 113.893 8.3 113.893 9.66C113.893 10.64 114.033 11.44 114.273 12.06C114.733 13.2 115.593 13.78 116.853 13.78C117.793 13.78 118.513 13.4 118.993 12.64ZM132.006 4.54C131.766 5.22 131.206 6.74 130.366 9.14C129.726 10.92 129.186 12.4 128.766 13.52C127.746 16.2 127.026 17.82 126.606 18.4C126.186 19 125.486 19.28 124.466 19.28C124.226 19.28 124.026 19.28 123.906 19.26C123.766 19.24 123.586 19.2 123.406 19.16V17.54C123.706 17.64 123.926 17.68 124.066 17.7C124.206 17.72 124.326 17.74 124.426 17.74C124.746 17.74 124.986 17.68 125.146 17.58C125.286 17.48 125.426 17.34 125.526 17.18C125.566 17.12 125.666 16.86 125.886 16.38L126.326 15.3L122.446 4.54H124.446L127.246 13.06L130.066 4.54H132.006Z" fill="white"/>
</svg>
