<svg width="191" height="50" viewBox="0 0 191 50" fill="none" xmlns="http://www.w3.org/2000/svg">
<path d="M38.615 40.55C34.0871 44.1106 24.9625 48.8598 19.0994 44.8328C15.2035 42.1557 9.64036 39.5262 7.45184 35.2549C6.342 33.091 5.7502 28.809 5.44446 26.2902C4.84856 21.3844 5.44282 17.6918 7.22807 15.2131C9.25512 12.1369 16.3617 7.85245 19.2609 6.7131C26.1158 4.01638 31.1027 3.35491 37.9248 9.91228C41.4912 13.5852 42.492 19.9533 42.974 25.6139C43.515 31.9803 43.074 37.6115 38.615 40.55Z" stroke="white" stroke-width="1.611" stroke-miterlimit="22.926"/>
<path fill-rule="evenodd" clip-rule="evenodd" d="M22.8675 44.3711C17.4929 43.3875 8.38963 39.8793 7.57324 33.1826C7.03225 28.7318 5.41012 23.1252 7.07324 18.8875C7.91586 16.7408 10.5896 13.6318 12.1888 11.8326C15.3036 8.33012 18.3019 6.43586 21.1855 6.1498C24.6445 5.65963 32.1527 8.02438 34.7831 9.37111C41.0019 12.5539 44.6027 15.685 44.2216 24.6514C43.8478 29.4932 39.9478 34.2006 36.2241 38.0965C32.0372 42.4768 27.756 45.6982 22.8675 44.3711Z" fill="white"/>
<path d="M64.6639 16.3931H67.8115L62.2295 26.2292L67.8115 36.0652H64.6639L60.6557 29.0078L56.6475 36.0652H53.5L59.082 26.2292L53.5 16.3931H56.6475L60.6557 23.4505L64.6639 16.3931ZM81.8156 16.3931V18.9996H72.6189V25.4915H78.4959V28.098H72.6189V36.0652H69.791V16.3931H81.8156ZM90.1877 36.4095C85.2943 36.4095 83.6713 33.8029 83.6713 27.2128V25.2455C83.6713 18.6554 85.2943 16.0488 90.1877 16.0488C95.0812 16.0488 96.7287 18.6554 96.7287 25.2455V27.2128C96.7287 33.8029 95.0812 36.4095 90.1877 36.4095ZM90.1877 33.8029C93.0402 33.8029 93.8762 32.2537 93.8762 27.2128V25.2455C93.8762 20.2046 93.0402 18.6554 90.1877 18.6554C87.3107 18.6554 86.4992 20.2046 86.4992 25.2455V27.2128C86.4746 32.2537 87.3598 33.8029 90.1877 33.8029ZM104.954 36.4095C100.479 36.4095 98.9541 34.1964 98.9541 28.4423V16.3931H101.782V28.4423C101.782 32.6472 102.495 33.8029 104.954 33.8029C107.413 33.8029 108.151 32.6472 108.151 28.4423V16.3931H110.979V28.4423C110.979 34.1964 109.43 36.4095 104.954 36.4095ZM122.966 29.9669V16.3931H125.794V36.0652H122.77L116.499 22.5406V36.0652H113.647V16.3931H116.671L122.966 29.9669ZM128.412 16.3931H134.806C139.601 16.3931 141.224 19.1472 141.224 26.2292C141.224 33.3111 139.601 36.0652 134.806 36.0652H128.412V16.3931ZM131.24 33.4587H134.806C137.511 33.4587 138.396 31.7619 138.396 26.2292C138.396 20.6964 137.511 18.9996 134.806 18.9996H131.24V33.4587ZM155.621 16.3931V18.9996H146.425V24.3603H152.326V26.9669H146.425V33.4587H155.621V36.0652H143.597V16.3931H155.621ZM171.47 36.0652H168.199L162.666 28.1964H161.093V36.0652H158.265V16.3931H164.314C168.765 16.3931 170.412 18.0406 170.412 22.2947C170.412 26.2783 169.158 27.8029 165.912 28.1226L171.47 36.0652ZM164.314 18.9996H161.093V25.5898H164.314C166.92 25.5898 167.584 25.1964 167.584 22.2947C167.584 19.7128 166.92 18.9996 164.314 18.9996ZM178.784 36.4095C175.096 36.4095 173.473 35.5242 172.194 32.8439L174.383 30.7783C175.219 33.1882 175.834 33.8029 178.784 33.8029C181.563 33.8029 182.276 33.0406 182.276 30.3849C182.276 28.3931 181.489 27.9751 178.539 26.9915C174.284 25.5898 172.834 24.4833 172.834 21.5078C172.834 17.5734 174.407 16.0488 178.784 16.0488C182.153 16.0488 183.702 16.8357 184.957 19.1964L182.94 21.3849C182.079 19.1964 181.514 18.6554 178.784 18.6554C176.227 18.6554 175.661 19.2701 175.661 21.5078C175.661 23.2046 176.325 23.4996 179.006 24.3357C183.53 25.7374 185.104 26.9915 185.104 30.3849C185.104 34.7374 183.457 36.4095 178.784 36.4095Z" fill="white"/>
</svg>
