<svg width="41" height="41" viewBox="0 0 41 41" fill="none" xmlns="http://www.w3.org/2000/svg">
<path fill-rule="evenodd" clip-rule="evenodd" d="M20.7776 40.3335C9.73189 40.3335 0.777588 31.3792 0.777588 20.3335C0.777588 9.2878 9.73189 0.333496 20.7776 0.333496C31.8233 0.333496 40.7776 9.2878 40.7776 20.3335C40.7776 31.3792 31.8233 40.3335 20.7776 40.3335ZM21.6424 15.3427C19.8512 16.0878 16.2712 17.6298 10.9025 19.9689C10.0307 20.3155 9.57401 20.6547 9.53243 20.9863C9.46217 21.5468 10.164 21.7675 11.1198 22.068C11.2498 22.1089 11.3845 22.1512 11.5226 22.1961C12.4629 22.5018 13.7277 22.8594 14.3853 22.8736C14.9818 22.8865 15.6475 22.6406 16.3825 22.1359C21.3986 18.7498 23.9879 17.0384 24.1505 17.0015C24.2652 16.9754 24.4241 16.9427 24.5318 17.0384C24.6395 17.1341 24.6289 17.3154 24.6175 17.364C24.548 17.6604 21.793 20.2217 20.3672 21.5472C19.9228 21.9604 19.6075 22.2535 19.543 22.3205C19.3987 22.4704 19.2515 22.6123 19.1101 22.7486C18.2365 23.5907 17.5815 24.2222 19.1464 25.2535C19.8984 25.7491 20.5002 26.1589 21.1006 26.5677C21.7562 27.0142 22.4101 27.4596 23.2563 28.0142C23.4718 28.1555 23.6777 28.3023 23.8782 28.4452C24.6412 28.9892 25.3268 29.4779 26.1736 29.4C26.6658 29.3547 27.1741 28.892 27.4322 27.5119C28.0423 24.2504 29.2415 17.1836 29.5187 14.2716C29.543 14.0164 29.5124 13.6899 29.4879 13.5466C29.4634 13.4033 29.4121 13.199 29.2258 13.0479C29.0051 12.8688 28.6645 12.8311 28.5122 12.8336C27.8195 12.8459 26.7568 13.2155 21.6424 15.3427Z" fill="#6B7280"/>
</svg>
