<svg width="41" height="41" viewBox="0 0 41 41" fill="none" xmlns="http://www.w3.org/2000/svg">
<path d="M32.2278 14.7021C33.3997 13.8232 34.4543 12.7686 35.2747 11.5381C34.22 12.0068 32.9895 12.3584 31.759 12.4756C33.0481 11.7139 33.9856 10.542 34.4543 9.07715C33.2825 9.78027 31.9348 10.3076 30.5872 10.6006C29.4153 9.37012 27.8333 8.66699 26.0754 8.66699C22.677 8.66699 19.9231 11.4209 19.9231 14.8193C19.9231 15.2881 19.9817 15.7568 20.0989 16.2256C15.0012 15.9326 10.4309 13.4717 7.38403 9.78027C6.85669 10.6592 6.56372 11.7139 6.56372 12.8857C6.56372 14.9951 7.61841 16.8701 9.31763 17.9834C8.32153 17.9248 7.32544 17.6904 6.50513 17.2217V17.2803C6.50513 20.2686 8.6145 22.7295 11.427 23.3154C10.9583 23.4326 10.3723 23.5498 9.84497 23.5498C9.43481 23.5498 9.08325 23.4912 8.6731 23.4326C9.43481 25.8936 11.72 27.6514 14.4153 27.71C12.3059 29.3506 9.66919 30.3467 6.7981 30.3467C6.27075 30.3467 5.802 30.2881 5.33325 30.2295C8.02856 31.9873 11.2512 32.9834 14.7668 32.9834C26.0754 32.9834 32.2278 23.667 32.2278 15.5225C32.2278 15.2295 32.2278 14.9951 32.2278 14.7021Z" fill="#6B7280"/>
</svg>
